# xmcd
#
# Track frame offsets:
# 150
# 27313
# 44312
# 67824
# 86141
# 104758
# 127809
# 152806
# 172173
# 194485
# 226559
#
# Disc length: 3359 seconds
#
#
# Revision: 0
# Processed by: cddbd v1.5.2PL0 Copyright (c) Steve Scherf et al.
# Submitted via: FreeRIP 2.96 
#
DISCID=8d0d1d0b
DTITLE=Hugues Fantino - Traces de Toi
DYEAR=2003
DGENRE=Contemporary Christian
TTITLE0=Choisis la vie
TTITLE1=Ouvre les voiles de ton coeur
TTITLE2=Avance en eau profonde
TTITLE3=Trouver ta présence
TTITLE4=Pense à moi
TTITLE5=Grain de blé
TTITLE6=Dans ce monde de fous
TTITLE7=Le seigneur est mon berger
TTITLE8=Ma prière
TTITLE9=O Dieu envoie-nous des fous
TTITLE10=Traces de Toi
EXTD=French author and singer
EXTT0=
EXTT1=
EXTT2=
EXTT3=
EXTT4=
EXTT5=
EXTT6=
EXTT7=
EXTT8=
EXTT9=
EXTT10=
PLAYORDER=
